# AST/ASF file generated using VICON BodyLanguage
# -----------------------------------------------
:version 1.10
:name VICON
:units
  mass 1.0
  length 0.45
  angle deg
:documentation
   .ast/.asf automatically generated from VICON data using
   VICON BodyBuilder and BodyLanguage model FoxedUp or BRILLIANT.MOD
:root
   order TX TY TZ RX RY RZ
   axis XYZ
   position 0 0 0  
   orientation 0 0 0 
:bonedata
  begin
     id 1 
     name lhipjoint
     direction 0.671379 -0.66392 0.329334 
     length 2.38647 
     axis 0 0 0  XYZ
  end
  begin
     id 2 
     name lfemur
     direction 0.34202 -0.939693 0  
     length 6.48179  
     axis 0 0 20  XYZ
    dof rx ry rz
    limits (-160.0 20.0)
           (-70.0 70.0)
           (-60.0 70.0)
  end
  begin
     id 3 
     name ltibia
     direction 0.34202 -0.939693 0   
     length 6.86524   
     axis 0 0 20   XYZ
    dof rx
    limits (-10.0 170.0)
  end
  begin
     id 4 
     name lfoot
     direction 0.204886 -0.562919 0.800715   
     length 1.73031   
     axis -90 7.62852e-016 20   XYZ
    dof rx rz
    limits (-45.0 90.0)
           (-70.0 20.0)
  end
  begin
     id 5 
     name ltoes
     direction 1.53548e-011 -4.21841e-011 1   
     length 0.828161   
     axis -90 7.62852e-016 20   XYZ
    dof rx
    limits (-90.0 20.0)
  end
  begin
     id 6 
     name rhipjoint
     direction -0.662732 -0.670855 0.332775   
     length 2.3618  
     axis 0 0 0  XYZ 
  end
  begin
     id 7 
     name rfemur
     direction -0.34202 -0.939693 0   
     length 6.3025   
     axis 0 0 -20   XYZ
    dof rx ry rz
    limits (-160.0 20.0)
           (-70.0 70.0)
           (-70.0 60.0)
  end
  begin
     id 8 
     name rtibia
     direction -0.34202 -0.939693 0   
     length 6.8732   
     axis 0 0 -20   XYZ
    dof rx
    limits (-10.0 170.0)
 end
 begin
     id 9 
     name rfoot
     direction -0.173856 -0.477665 0.861168   
     length 1.54784  
     axis -90 -7.62852e-016 -20   XYZ
    dof rx rz
    limits (-45.0 90.0)
           (-20.0 70.0)
  end
  begin
     id 10 
     name rtoes
     direction -1.53562e-011 -4.21802e-011 1   
     length 0.759618   
     axis -90 -7.62852e-016 -20   XYZ
    dof rx
    limits (-90.0 20.0)
  end
  begin
     id 11 
     name lowerback
     direction -0.0278357 0.999497 -0.0151789   
     length 1.97203   
     axis 0 0 0   XYZ
    dof rx ry rz
    limits (-20.0 45.0)
           (-30.0 30.0)
           (-30.0 30.0)
  end
  begin
     id 12 
     name upperback
     direction -0.00360622 0.997542 0.0699804   
     length 1.94709   
     axis 0 0 0   XYZ
    dof rx ry rz
    limits (-20.0 45.0)
           (-30.0 30.0)
           (-30.0 30.0)
  end
  begin
     id 13 
     name thorax
     direction 0.00907706 0.997048 0.0762461   
     length 1.95722   
     axis 0 0 0   XYZ
    dof rx ry rz
    limits (-20.0 45.0)
           (-30.0 30.0)
           (-30.0 30.0)
  end
  begin
     id 14 
     name lowerneck
     direction -0.0481835 0.99872 -0.0153927   
     length 1.63078   
     axis 0 0 0   XYZ
    dof rx ry rz
    limits (-20.0 45.0)
           (-30.0 30.0)
           (-30.0 30.0)
  end
  begin
     id 15 
     name upperneck
     direction 0.0859716 0.979226 -0.183644   
     length 1.62591   
     axis 0 0 0   XYZ
    dof rx ry rz
    limits (-20.0 45.0)
           (-30.0 30.0)
           (-30.0 30.0)
  end
  begin
     id 16
     name head
     direction 0.0324821 0.997629 -0.0606773  
     length 1.64811  
     axis 0 0 0   XYZ
    dof rx ry rz
    limits (-20.0 45.0)
           (-30.0 30.0)
           (-30.0 30.0)
  end
  begin
     id 17 
     name lclavicle
     direction 0.939609 0.311019 0.142835  
     length 3.70647  
     axis 0 0 0   XYZ
    dof ry rz
    limits (-20.0 10.0)
           (0.0 20.0)
  end
  begin
     id 18 
     name lhumerus
     direction 1 -4.48963e-011 -1.59838e-027   
     length 4.59207   
     axis 180 -30 -90   XYZ
    dof rx ry rz
    limits (-60.0 90.0)
           (-90.0 90.0)
           (-90.0 90.0)
  end
  begin
     id 19
     name lradius
     direction 1 -4.48957e-011 -1.3483e-026   
     length 2.98109   
     axis 180 -30 -90   XYZ
    dof rx
    limits (-10.0 170.0)
  end
  begin
     id 20
     name lwrist
     direction 1 -4.48954e-011 -3.11579e-026   
     length 1.49055   
     axis 2.00652e-014 90 90   XYZ
    dof ry
    limits (-180.0 0.0)
 end
  begin
     id 21 
     name lhand
     direction 1 -4.4911e-011 -6.23158e-026   
     length 0.480203   
     axis 3.97628e-014 90 90   XYZ
    dof rx rz
    limits (-90.0 90.0)
           (-45.0 45.0)
  end
  begin
     id 22 
     name lfingers
     direction 1 -4.48893e-011 -1.24632e-025   
     length 0.387152   
     axis 7.95256e-014 90 90   XYZ
    dof rx
    limits (0.0 90.0)
  end
  begin
     id 23
     name lthumb
     direction 0.707107 -6.35013e-011 0.707107   
     length 0.555875   
     axis -90 45 2.85299e-015   XYZ
    dof rx rz
    limits (-45.0 45.0)
           (-45.0 45.0)
  end
  begin
     id 24 
     name rclavicle
     direction -0.950396 0.30392 0.0661859   
     length 3.70894  
     axis 0 0 0   XYZ 
    dof ry rz
    limits (-10.0 20.0)
           (-20.0 0.0)
  end
  begin
     id 25 
     name rhumerus
     direction -1 -4.48957e-011 -2.96677e-027  
     length 4.76508   
     axis 180 30 90   XYZ
    dof rx ry rz
    limits (-90.0 60.0)
           (-90.0 90.0)
           (-90.0 90.0)
  end
  begin
     id 26 
     name rradius
     direction -1 -4.48974e-011 -1.44501e-026   
     length 2.78902   
     axis 180 30 90   XYZ
    dof rx
    limits (-10.0 170.0)
  end
  begin
     id 27 
     name rwrist
     direction -1 -4.48978e-011 -3.11579e-026   
     length 1.39451   
     axis 2.00652e-014 -90 -90   XYZ
    dof ry
    limits (-180.0 0.0)
  end
  begin
     id 28
     name rhand
     direction -1 -4.48956e-011 -6.23158e-026   
     length 0.721303   
     axis 3.97628e-014 -90 -90   XYZ
    dof rx rz
    limits (-90.0 90.0)
           (-45.0 45.0)
  end
  begin
     id 29
     name rfingers
     direction -1 -4.4899e-011 -1.24632e-025   
     length 0.581533   
     axis 7.95256e-014 -90 -90   XYZ
    dof rx
    limits (0.0 90.0)
  end
  begin
     id 30
     name rthumb
     direction -0.707107 -6.34911e-011 0.707107   
     length 0.834968   
     axis -90 -45 -2.85299e-015   XYZ
    dof rx rz
    limits (-45.0 45.0)
           (-45.0 45.0)
  end
:hierarchy
  begin
    root lhipjoint rhipjoint lowerback
    lhipjoint lfemur
    lfemur ltibia
    ltibia lfoot
    lfoot ltoes
    rhipjoint rfemur
    rfemur rtibia
    rtibia rfoot
    rfoot rtoes
    lowerback upperback
    upperback thorax
    thorax lowerneck lclavicle rclavicle
    lowerneck upperneck
    upperneck head
    lclavicle lhumerus
    lhumerus lradius
    lradius lwrist
    lwrist lhand lthumb
    lhand lfingers
    rclavicle rhumerus
    rhumerus rradius
    rradius rwrist
    rwrist rhand rthumb
    rhand rfingers
  end

#!OML:ASF I:\salsa\salsa 7_09\Patient 1\Session 1\dancerfemale.ASF
:FULLY-SPECIFIED
:DEGREES
524
root 16.329 15.9425 -0.609499 -367.912 -111.31 376.819
lowerback 3.4988 2.46509 4.94366
upperback -4.50546 3.68585 4.00233
thorax -6.62958 1.60596 1.09544
lowerneck -8.81252 4.35184 -3.48677
upperneck 14.2856 6.24492 0.394317
head 5.64246 2.82678 1.14279
rclavicle -1.98055e-014 3.4191e-014
rhumerus -34.725 2.74192 -81.859
rradius 89.3917
rwrist -2.24067
rhand -3.27092 76.3813
rfingers 7.12502
rthumb 22.4539 47.6666
lclavicle -1.98055e-014 3.4191e-014
lhumerus -42.2399 28.5279 33.7855
lradius 132.768
lwrist 2.71653
lhand -8.46069 43.4017
lfingers 7.12502
lthumb 17.4655 72.6371
rfemur 6.73497 -3.31935 21.6078
rtibia 20.6605
rfoot 2.72664 -9.98084
rtoes -19.0444
lfemur -35.1857 4.35703 -17.0509
ltibia 49.8876
lfoot -24.5872 2.97814
ltoes -31.5869
525
root 16.2017 15.9768 -0.595589 -365.807 -110.877 374.82
lowerback 2.70364 2.60309 4.26986
upperback -4.70778 3.77345 3.98164
thorax -6.42316 1.68369 1.4707
lowerneck -8.51303 4.34702 -3.84281
upperneck 14.7565 6.2662 0.412016
head 5.72711 2.80244 1.20673
rclavicle -6.41205e-014 -8.74653e-015
rhumerus -34.7885 2.21943 -81.4791
rradius 88.4356
rwrist -1.8547
rhand -4.06747 77.3712
rfingers 7.12502
rthumb 21.6892 48.5661
lclavicle -6.41205e-014 -8.74653e-015
lhumerus -41.7657 27.918 34.3583
lradius 133.09
lwrist 4.51738
lhand -8.05065 43.8076
lfingers 7.12502
lthumb 17.8601 73.0075
rfemur 5.80515 -1.0981 21.416
rtibia 22.4045
rfoot 3.37309 -12.8354
rtoes -17.4491
lfemur -34.0697 3.43755 -18.3061
ltibia 48.3086
lfoot -24.4479 6.02446
ltoes -27.6801
526
root 16.0644 15.9782 -0.567985 -363.843 -110.118 371.75
lowerback 2.91308 2.55929 3.49251
upperback -4.60584 3.6902 3.84951
thorax -6.47241 1.68568 1.76132
lowerneck -8.31366 4.30141 -4.32439
upperneck 15.5577 6.24027 0.503022
head 5.92773 2.73989 1.31918
rclavicle -1.45361e-014 4.29375e-014
rhumerus -34.6188 1.93439 -81.2513
rradius 87.3632
rwrist -1.58078
rhand -4.83636 78.4415
rfingers 7.12502
rthumb 20.9506 49.5529
lclavicle -1.45361e-014 4.29375e-014
lhumerus -40.927 27.3204 35.1752
lradius 133.213
lwrist 6.22623
lhand -7.13165 44.0773
lfingers 7.12502
lthumb 18.7442 73.1942
rfemur 5.91648 -0.0460444 20.4448
rtibia 24.5019
rfoot 4.15947 -14.9855
rtoes -16.0352
lfemur -31.6521 2.13019 -19.9515
ltibia 46.6748
lfoot -23.7543 7.5889
ltoes -26.763
527
root 15.9359 15.9726 -0.546646 -361.382 -109.246 368.837
lowerback 2.61594 2.5068 2.57812
upperback -4.75776 3.55776 3.76634
thorax -6.50954 1.66597 2.2039
lowerneck -7.98793 4.20064 -4.75913
upperneck 16.4333 6.13257 0.501182
head 6.13832 2.62555 1.38753
rclavicle -4.12975e-014 -3.49861e-014
rhumerus -34.291 1.92312 -81.271
rradius 86.208
rwrist -1.68532
rhand -5.76381 79.0519
rfingers 7.12502
rthumb 20.0594 50.0674
lclavicle -4.12975e-014 -3.49861e-014
lhumerus -39.9152 26.5947 36.2581
lradius 133.174
lwrist 8.11798
lhand -6.74426 44.2631
lfingers 7.12502
lthumb 19.1168 73.3436
rfemur 4.67578 -1.34521 18.9833
rtibia 27.4342
rfoot 5.70675 -15.2113
rtoes -14.8076
lfemur -30.0473 0.996615 -21.3876
ltibia 45.0552
lfoot -23.0616 8.1206
ltoes -26.3004
528
root 15.7998 15.9975 -0.522932 -359.652 -108.385 366.579
lowerback 2.84292 2.61734 2.28963
upperback -5.18852 3.70027 3.30541
thorax -7.0886 1.73514 1.85506
lowerneck -7.27087 3.92757 -4.25605
upperneck 17.3328 5.65389 0.325583
head 6.33127 2.37297 1.21385
rclavicle -2.66371e-014 3.89618e-014
rhumerus -34.5038 1.14242 -81.9029
rradius 85.2549
rwrist -2.2363
rhand -6.36557 79.0966
rfingers 7.12502
rthumb 19.4809 50.0525
lclavicle -2.66371e-014 3.89618e-014
lhumerus -38.1548 25.0364 37.5269
lradius 132.792
lwrist 10.2486
lhand -6.61388 44.3452
lfingers 7.12502
lthumb 19.2421 73.4132
rfemur 2.80813 -2.54292 17.8834
rtibia 31.5907
rfoot 7.44634 -15.6732
rtoes -13.3026
lfemur -28.7233 -1.01887 -22.1719
ltibia 43.8672
lfoot -22.6501 8.65842
ltoes -22.3347
529
root 15.6845 15.984 -0.499414 -357.353 -107.537 363.896
lowerback 2.66165 3.25443 1.76183
upperback -5.48389 4.49336 2.52346
thorax -7.28819 2.1356 1.26195
lowerneck -6.43808 3.10123 -2.78304
upperneck 17.9084 4.35111 -0.186581
head 6.44302 1.77569 0.708017
rclavicle 1.54555e-014 1.66979e-014
rhumerus -34.6631 -1.36571 -82.2568
rradius 84.7638
rwrist -2.91331
rhand -7.14112 78.8949
rfingers 7.12502
rthumb 18.7351 49.7772
lclavicle 1.54555e-014 1.66979e-014
lhumerus -34.4019 22.7083 40.3676
lradius 131.793
lwrist 12.0825
lhand -6.4737 44.0666
lfingers 7.12502
lthumb 19.3769 73.1212
rfemur 0.0162144 -3.4001 16.9151
rtibia 37.0086
rfoot 8.97307 -16.7966
rtoes -11.4772
lfemur -27.6996 -2.98701 -23.1954
ltibia 43.1649
lfoot -22.9811 8.8762
ltoes -19.9434
530
root 15.5954 15.9415 -0.480299 -354.3 -106.563 360.492
lowerback 2.38469 3.16005 0.981214
upperback -5.53332 4.30523 2.32067
thorax -7.21867 2.08433 1.51313
lowerneck -5.96196 2.94721 -2.90415
upperneck 18.5503 4.18224 -0.602288
head 6.57525 1.6245 0.580506
rclavicle 5.2181e-014 6.36111e-015
rhumerus -33.6577 -1.31576 -82.8336
rradius 83.9334
rwrist -3.20619
rhand -7.15881 78.317
rfingers 7.12502
rthumb 18.7181 49.1975
lclavicle 5.2181e-014 6.36111e-015
lhumerus -32.6619 21.8868 42.3453
lradius 130.737
lwrist 13.8758
lhand -7.00051 43.9755
lfingers 7.12502
lthumb 18.8703 73.0802
rfemur -3.31555 -4.21936 16.0006
rtibia 43.1453
rfoot 10.197 -18.6302
rtoes -8.18968
lfemur -26.9978 -4.61075 -24.4798
ltibia 42.7492
lfoot -23.9618 7.50045
ltoes -19.8998
531
root 15.5375 15.8577 -0.469193 -350.584 -105.233 356.187
lowerback 2.50711 2.97193 0.144439
upperback -5.4667 4.00115 2.03304
thorax -7.24729 1.97836 1.69853
lowerneck -5.6196 2.66667 -3.27071
upperneck 19.1822 3.83536 -0.77892
head 6.71981 1.38922 0.558453
rclavicle -1.83876e-014 1.03368e-014
rhumerus -32.3487 -1.44439 -83.45
rradius 83.0551
rwrist -2.68041
rhand -7.5596 77.2542
rfingers 7.12502
rthumb 18.3326 48.0981
lclavicle -1.83876e-014 1.03368e-014
lhumerus -30.6329 20.8089 44.5597
lradius 129.328
lwrist 15.7745
lhand -8.11787 44.2973
lfingers 7.12502
lthumb 17.7954 73.503
rfemur -6.7848 -5.64182 15.0211
rtibia 49.8284
rfoot 9.74246 -21.0211
rtoes -8.63814
lfemur -26.4085 -5.91001 -25.8849
ltibia 42.565
lfoot -23.866 7.58264
ltoes -20.223
532
root 15.4876 15.8043 -0.471447 -345.127 -104.173 349.871
lowerback 2.99857 2.84718 -1.09421
upperback -5.30045 3.75094 1.57883
thorax -7.39767 1.91812 1.91445
lowerneck -5.28403 2.3422 -3.67926
upperneck 19.8003 3.39888 -0.780301
head 6.85949 1.12145 0.592804
rclavicle -2.8625e-014 1.27222e-014
rhumerus -31.1266 -1.73002 -84.2979
rradius 82.4969
rwrist -1.76172
rhand -8.30306 75.4433
rfingers 7.12502
rthumb 17.6172 46.2214
lclavicle -2.8625e-014 1.27222e-014
lhumerus -28.3272 19.5172 46.8587
lradius 127.489
lwrist 17.7988
lhand -9.02049 44.6982
lfingers 7.12502
lthumb 16.9267 73.9806
rfemur -10.2584 -7.17902 13.6921
rtibia 56.19
rfoot 9.03973 -20.7684
rtoes -5.80226
lfemur -25.3964 -6.08058 -27.6866
ltibia 42.2174
lfoot -23.5638 6.70986
ltoes -20.3643
533
root 15.4445 15.7422 -0.483484 -338.558 -103.981 342.206
lowerback 3.7395 2.94762 -2.7331
upperback -5.02159 3.74798 1.00681
thorax -7.6051 1.99723 2.1974
lowerneck -5.00018 1.98515 -4.08546
upperneck 20.5168 2.91333 -0.778848
head 7.04401 0.824739 0.625242
rclavicle -3.11098e-014 -1.59028e-015
rhumerus -29.9497 -1.71431 -85.3559
rradius 82.0931
rwrist -0.965923
rhand -9.20767 73.1722
rfingers 7.12502
rthumb 16.7465 43.8744
lclavicle -3.11098e-014 -1.59028e-015
lhumerus -25.7121 18.2264 49.2771
lradius 125.2
lwrist 19.7028
lhand -8.73605 45.202
lfingers 7.12502
lthumb 17.2005 74.4607
rfemur -13.4966 -7.68016 12.1176
rtibia 61.829
rfoot 7.00018 -18.2397
rtoes -3.0268
lfemur -24.0182 -5.20746 -29.8717
ltibia 41.7075
lfoot -23.2662 5.51771
ltoes -20.0091
534
root 15.3898 15.7077 -0.495121 -332.242 -103.673 334.46
lowerback 4.69744 2.99151 -4.01913
upperback -4.52573 3.66363 0.439795
thorax -7.67673 2.00977 2.29293
lowerneck -4.96186 1.54327 -4.52434
upperneck 21.4029 2.33152 -0.799344
head 7.3338 0.469845 0.651308
rclavicle -2.01766e-014 7.95139e-016
rhumerus -28.6975 -1.70739 -86.5197
rradius 81.7881
rwrist -0.231659
rhand -9.80946 70.6763
rfingers 7.12502
rthumb 16.1671 41.3306
lclavicle -2.01766e-014 7.95139e-016
lhumerus -22.6983 17.072 51.7444
lradius 122.433
lwrist 21.596
lhand -8.27036 45.5441
lfingers 7.12502
lthumb 17.6487 74.7632
rfemur -15.9425 -8.38604 10.6762
rtibia 66.2401
rfoot 3.98454 -14.2182
rtoes -5.69744
lfemur -21.9461 -4.04284 -31.8884
ltibia 40.7703
lfoot -22.8764 3.93281
ltoes -19.4903
535
root 15.3296 15.7078 -0.503721 -327.762 -103.428 328.572
lowerback 5.58464 3.1079 -4.69086
upperback -3.91025 3.71637 -0.00992352
thorax -7.55179 2.05017 2.16049
lowerneck -4.91392 1.05032 -5.17169
upperneck 22.199 1.65732 -0.588975
head 7.59599 0.0778133 0.778225
rclavicle -3.46382e-014 -7.95139e-015
rhumerus -26.8426 -1.0312 -87.4768
rradius 80.7395
rwrist -0.120833
rhand -10.2878 67.5601
rfingers 7.12502
rthumb 15.7065 38.1775
lclavicle -3.46382e-014 -7.95139e-015
lhumerus -19.5105 15.8683 54.1687
lradius 119.294
lwrist 23.4805
lhand -9.50099 45.6932
lfingers 7.12502
lthumb 16.4641 75.0145
rfemur -18.1399 -8.84907 9.85379
rtibia 69.4538
rfoot 1.51157 -11.1328
rtoes -9.10196
lfemur -19.7844 -2.64817 -33.2654
ltibia 39.7057
lfoot -22.5501 2.24186
ltoes -18.24
536
root 15.2666 15.7179 -0.511429 -324.142 -103.337 323.621
lowerback 6.41126 3.26403 -5.1074
upperback -3.32606 3.83425 -0.423535
thorax -7.41409 2.10591 1.91693
lowerneck -4.71726 0.558821 -5.91766
upperneck 22.9844 0.95063 -0.259513
head 7.83655 -0.329366 0.95637
rclavicle -1.09332e-015 -2.14687e-014
rhumerus -25.3775 -0.429683 -88.4006
rradius 79.6837
rwrist -0.0334585
rhand -10.1699 66.3588
rfingers 7.12502
rthumb 15.8201 36.9852
lclavicle -1.09332e-015 -2.14687e-014
lhumerus -16.5117 14.4508 56.4546
lradius 115.915
lwrist 24.7708
lhand -10.4424 46.2807
lfingers 7.12502
lthumb 15.5576 75.6749
rfemur -20.1978 -9.00481 9.29725
rtibia 71.6219
rfoot -0.632722 -8.39236
rtoes -8.72109
lfemur -17.6541 -1.75541 -34.349
ltibia 38.6154
lfoot -22.3251 1.14364
ltoes -16.1985
